<?xml version="1.0" encoding="utf-8"?>
<!-- Generator: Adobe Illustrator 22.0.0, SVG Export Plug-In . SVG Version: 6.00 Build 0)  -->
<svg version="1.1" id="Layer_1" xmlns="http://www.w3.org/2000/svg" xmlns:xlink="http://www.w3.org/1999/xlink" x="0px" y="0px"
	 viewBox="0 0 512 512" style="enable-background:new 0 0 512 512;" xml:space="preserve">
<path d="M468,75.4c-26.1-28.3-61.9-43.9-100.8-43.9c-29.1,0-55.7,9.2-79.2,27.3c-11.8,9.2-22.6,20.4-32,33.4
	c-9.5-13.1-20.2-24.3-32-33.4c-23.5-18.1-50.1-27.3-79.2-27.3c-38.9,0-74.7,15.6-100.8,43.9C18.2,103.4,4,141.6,4,183
	c0,42.6,15.9,81.6,50,122.8c30.5,36.8,74.4,74.2,125.1,117.4l0.1,0.1c17.3,14.8,36.9,31.5,57.3,49.3c5.4,4.7,12.3,7.3,19.5,7.3
	c7.2,0,14.1-2.6,19.5-7.3c20.4-17.8,40.1-34.6,57.4-49.4c50.8-43.3,94.6-80.6,125.1-117.4c34.1-41.1,50-80.2,50-122.8
	C508,141.6,493.8,103.4,468,75.4z"/>
</svg>
